<svg width="1348" height="1643" viewBox="0 0 1348 1643" fill="none" xmlns="http://www.w3.org/2000/svg">
<path fill-rule="evenodd" clip-rule="evenodd" d="M322.009 1371C460.084 1371 572.017 1238.48 572.017 1075C572.017 987.607 393.884 1060.06 343.012 1005.88C298.725 958.709 386.269 779 322.009 779C183.933 779 72 911.524 72 1075C72 1238.48 183.933 1371 322.009 1371Z" fill="#006A61"/>
<path opacity="0.541829" fill-rule="evenodd" clip-rule="evenodd" d="M667.623 319.107C639.664 506.943 745.537 686.064 904.095 719.184C988.86 736.89 954.653 479.882 1017.51 421.654C1072.23 370.963 1228.8 526.467 1241.81 439.047C1269.77 251.211 1163.9 72.0906 1005.34 38.9701C846.782 5.8495 695.581 131.271 667.623 319.107Z" fill="#006A61"/>
<path opacity="0.6" fill-rule="evenodd" clip-rule="evenodd" d="M307.296 292.455C177.346 348.486 110.343 518.707 157.641 672.653C182.926 754.952 329.613 614.433 393.168 644.814C448.497 671.262 418.099 876.02 478.578 849.942C608.529 793.91 675.532 623.69 628.234 469.744C580.935 315.798 437.247 236.423 307.296 292.455Z" fill="#006A61"/>
<path fill-rule="evenodd" clip-rule="evenodd" d="M1305.57 1140.73C1336.43 933.425 1219.58 735.739 1044.59 699.186C951.04 679.644 988.792 963.291 919.424 1027.55C859.034 1083.5 686.23 911.878 671.869 1008.36C641.014 1215.66 757.859 1413.35 932.851 1449.9C1107.84 1486.46 1274.72 1348.03 1305.57 1140.73Z" fill="#006A61"/>
</svg>
