<svg width="266" height="66" viewBox="0 0 266 66" fill="none" xmlns="http://www.w3.org/2000/svg">
<path d="M28.3204 20.2783C25.2494 22.5968 22.1262 25.3115 19.0812 28.3631C5.47407 41.9998 -1.42016 57.2 3.68252 62.3138C8.78518 67.4272 23.9525 60.5182 37.5596 46.8816C40.6047 43.83 43.3135 40.7001 45.627 37.6224" stroke="#006A61" stroke-width="3" stroke-linecap="round" stroke-linejoin="round"/>
<path d="M45.627 37.6216C53.6518 48.2969 56.9194 58.3434 52.9584 62.3129C47.8556 67.4268 32.6884 60.5174 19.0812 46.8808C5.47407 33.2442 -1.42016 18.044 3.68252 12.9303C7.6433 8.96094 17.6682 12.2355 28.3205 20.2775" stroke="#006A61" stroke-width="3" stroke-linecap="round" stroke-linejoin="round"/>
<path d="M25.9285 37.6226C25.9285 38.9469 26.9998 40.0205 28.3212 40.0205C29.6427 40.0205 30.714 38.9469 30.714 37.6226C30.714 36.2982 29.6427 35.2246 28.3212 35.2246C26.9998 35.2246 25.9285 36.2982 25.9285 37.6226Z" stroke="#006A61" stroke-width="3" stroke-linecap="round" stroke-linejoin="round"/>
<path d="M37.9373 16.742C36.434 16.4799 36.434 14.3172 37.9373 14.0551C43.3835 13.1056 47.715 8.94838 48.897 3.53656L48.9879 3.12173C49.3129 1.63277 51.4286 1.6235 51.7669 3.10956L51.877 3.593C53.1025 8.97926 57.4354 13.1013 62.8665 14.0482C64.3777 14.3117 64.3777 16.4854 62.8665 16.7489C57.4354 17.6958 53.1025 21.8179 51.877 27.2042L51.7669 27.6876C51.4286 29.1736 49.3129 29.1644 48.9879 27.6754L48.897 27.2606C47.715 21.8488 43.3835 17.6915 37.9373 16.742Z" stroke="#006A61" stroke-width="3" stroke-linecap="round" stroke-linejoin="round"/>
<path d="M99.0909 28.8182C98.8977 26.875 98.0398 25.3295 96.517 24.1818C94.9943 23.0341 93.0795 22.4602 90.7727 22.4602C89.1477 22.4602 87.7159 22.7386 86.4773 23.2955C85.25 23.8523 84.2841 24.625 83.5795 25.6136C82.8864 26.5909 82.5398 27.7045 82.5398 28.9545C82.5398 29.875 82.7386 30.6818 83.1364 31.375C83.5341 32.0682 84.0682 32.6648 84.7386 33.1648C85.4205 33.6534 86.1705 34.0739 86.9886 34.4261C87.8182 34.7784 88.6534 35.0739 89.4943 35.3125L93.1761 36.3693C94.2898 36.6761 95.4034 37.0682 96.517 37.5455C97.6307 38.0227 98.6477 38.625 99.5682 39.3523C100.5 40.0682 101.244 40.9489 101.801 41.9943C102.369 43.0284 102.653 44.2727 102.653 45.7273C102.653 47.5909 102.17 49.267 101.205 50.7557C100.239 52.2443 98.8523 53.4261 97.0455 54.3011C95.2386 55.1648 93.0739 55.5966 90.5511 55.5966C88.1761 55.5966 86.1136 55.2045 84.3636 54.4205C82.6136 53.625 81.2386 52.5284 80.2386 51.1307C79.2386 49.733 78.6761 48.1136 78.5511 46.2727H81.8239C81.9375 47.6477 82.392 48.8125 83.1875 49.767C83.983 50.7216 85.017 51.4489 86.2898 51.9489C87.5625 52.4375 88.983 52.6818 90.5511 52.6818C92.2898 52.6818 93.8352 52.392 95.1875 51.8125C96.5511 51.2216 97.6193 50.4034 98.392 49.358C99.1761 48.3011 99.5682 47.0739 99.5682 45.6761C99.5682 44.4943 99.2614 43.5057 98.6477 42.7102C98.0341 41.9034 97.1761 41.2273 96.0739 40.6818C94.983 40.1364 93.7159 39.6534 92.2727 39.233L88.0966 38.0057C85.358 37.1875 83.233 36.0568 81.7216 34.6136C80.2102 33.1705 79.4545 31.3295 79.4545 29.0909C79.4545 27.2159 79.9545 25.5682 80.9545 24.1477C81.9659 22.7159 83.3295 21.6023 85.0455 20.8068C86.7727 20 88.7102 19.5966 90.858 19.5966C93.0284 19.5966 94.9489 19.9943 96.6193 20.7898C98.2898 21.5852 99.6136 22.6818 100.591 24.0795C101.58 25.4659 102.108 27.0455 102.176 28.8182H99.0909ZM119.869 55.5455C117.608 55.5455 115.608 54.9716 113.869 53.8239C112.142 52.6761 110.79 51.0909 109.812 49.0682C108.835 47.0341 108.347 44.6875 108.347 42.0284C108.347 39.3466 108.835 36.9886 109.812 34.9545C110.79 32.9091 112.142 31.3182 113.869 30.1818C115.608 29.0341 117.608 28.4602 119.869 28.4602C122.131 28.4602 124.125 29.0341 125.852 30.1818C127.58 31.3295 128.932 32.9205 129.909 34.9545C130.898 36.9886 131.392 39.3466 131.392 42.0284C131.392 44.6875 130.903 47.0341 129.926 49.0682C128.949 51.0909 127.591 52.6761 125.852 53.8239C124.125 54.9716 122.131 55.5455 119.869 55.5455ZM119.869 52.767C121.688 52.767 123.227 52.2784 124.489 51.3011C125.75 50.3239 126.705 49.0227 127.352 47.3977C128.011 45.7727 128.341 43.983 128.341 42.0284C128.341 40.0739 128.011 38.2784 127.352 36.642C126.705 35.0057 125.75 33.6932 124.489 32.7045C123.227 31.7159 121.688 31.2216 119.869 31.2216C118.063 31.2216 116.523 31.7159 115.25 32.7045C113.989 33.6932 113.028 35.0057 112.369 36.642C111.722 38.2784 111.398 40.0739 111.398 42.0284C111.398 43.983 111.722 45.7727 112.369 47.3977C113.028 49.0227 113.989 50.3239 115.25 51.3011C116.511 52.2784 118.051 52.767 119.869 52.767ZM142.161 20.0909L151.246 47.5682H151.604L160.672 20.0909H167.626L155.32 55H147.513L135.223 20.0909H142.161ZM171.952 55V28.8182H178.122V55H171.952ZM175.054 25.1023C174.077 25.1023 173.236 24.7784 172.531 24.1307C171.827 23.4716 171.474 22.6818 171.474 21.7614C171.474 20.8295 171.827 20.0398 172.531 19.392C173.236 18.733 174.077 18.4034 175.054 18.4034C176.043 18.4034 176.884 18.733 177.577 19.392C178.281 20.0398 178.634 20.8295 178.634 21.7614C178.634 22.6818 178.281 23.4716 177.577 24.1307C176.884 24.7784 176.043 25.1023 175.054 25.1023ZM205.161 35.7386L199.536 36.3523C199.376 35.7841 199.098 35.25 198.7 34.75C198.314 34.25 197.791 33.8466 197.132 33.5398C196.473 33.233 195.666 33.0795 194.712 33.0795C193.428 33.0795 192.348 33.358 191.473 33.9148C190.609 34.4716 190.183 35.1932 190.195 36.0795C190.183 36.8409 190.462 37.4602 191.03 37.9375C191.609 38.4148 192.564 38.8068 193.893 39.1136L198.359 40.0682C200.837 40.6023 202.678 41.4489 203.882 42.608C205.098 43.767 205.712 45.2841 205.723 47.1591C205.712 48.8068 205.229 50.2614 204.274 51.5227C203.331 52.7727 202.018 53.75 200.337 54.4545C198.655 55.1591 196.723 55.5114 194.541 55.5114C191.337 55.5114 188.757 54.8409 186.803 53.5C184.848 52.1477 183.683 50.267 183.308 47.858L189.325 47.2784C189.598 48.4602 190.178 49.3523 191.064 49.9545C191.95 50.5568 193.104 50.858 194.524 50.858C195.99 50.858 197.166 50.5568 198.053 49.9545C198.95 49.3523 199.399 48.608 199.399 47.7216C199.399 46.9716 199.109 46.3523 198.53 45.8636C197.962 45.375 197.075 45 195.871 44.7386L191.405 43.8011C188.893 43.2784 187.036 42.3977 185.831 41.1591C184.626 39.9091 184.03 38.3295 184.041 36.4205C184.03 34.8068 184.467 33.4091 185.354 32.2273C186.251 31.0341 187.496 30.1136 189.087 29.4659C190.689 28.8068 192.536 28.4773 194.626 28.4773C197.695 28.4773 200.109 29.1307 201.871 30.4375C203.643 31.7443 204.74 33.5114 205.161 35.7386ZM227.499 43.9886V28.8182H233.669V55H227.686V50.3466H227.413C226.822 51.8125 225.851 53.0114 224.499 53.9432C223.158 54.875 221.504 55.3409 219.538 55.3409C217.822 55.3409 216.305 54.9602 214.987 54.1989C213.68 53.4261 212.658 52.3068 211.919 50.8409C211.18 49.3636 210.811 47.5795 210.811 45.4886V28.8182H216.982V44.5341C216.982 46.1932 217.436 47.5114 218.345 48.4886C219.254 49.4659 220.447 49.9545 221.925 49.9545C222.834 49.9545 223.714 49.733 224.567 49.2898C225.419 48.8466 226.118 48.1875 226.663 47.3125C227.22 46.4261 227.499 45.3182 227.499 43.9886Z" fill="#006A61"/>
<path d="M252.5 38V42M252.5 42V46M252.5 42H256.5M252.5 42H248.5M264.5 42C264.5 43.5759 264.19 45.1363 263.587 46.5922C262.983 48.0481 262.1 49.371 260.985 50.4853C259.871 51.5996 258.548 52.4835 257.092 53.0866C255.636 53.6896 254.076 54 252.5 54C250.924 54 249.364 53.6896 247.908 53.0866C246.452 52.4835 245.129 51.5996 244.015 50.4853C242.9 49.371 242.017 48.0481 241.413 46.5922C240.81 45.1363 240.5 43.5759 240.5 42C240.5 38.8174 241.764 35.7652 244.015 33.5147C246.265 31.2643 249.317 30 252.5 30C255.683 30 258.735 31.2643 260.985 33.5147C263.236 35.7652 264.5 38.8174 264.5 42Z" stroke="#006A61" stroke-width="2" stroke-linecap="round" stroke-linejoin="round"/>
</svg>
